<?xml version="1.0" encoding="utf-8"?>
<!-- Generator: Adobe Illustrator 19.1.0, SVG Export Plug-In . SVG Version: 6.00 Build 0)  -->
<svg version="1.1" id="圖層_1" xmlns="http://www.w3.org/2000/svg" xmlns:xlink="http://www.w3.org/1999/xlink" x="0px" y="0px"
	 viewBox="0 0 150.9 48" style="enable-background:new 0 0 150.9 48;" xml:space="preserve">
<style type="text/css">
	.st0{fill:#488706;}
	.st1{fill:#5CA619;}
	.st2{fill:#FFFFFF;}
	.st3{fill:#000002;}
	.st4{fill:none;stroke:#000000;stroke-miterlimit:10;}
	.st5{fill:none;stroke:#000000;stroke-width:1.5;stroke-miterlimit:10;}
	.st6{fill:none;stroke:#000000;stroke-width:1.7;stroke-miterlimit:10;}
	.st7{fill:none;stroke:#000000;stroke-width:2;stroke-miterlimit:10;}
	.st8{fill:#3AB54A;}
</style>
<path class="st8" d="M121.7,42.8V28.5c0,0,0-1.5,0-3.3c0-1.8-1.5-4-3.8-4c-2.3,0-3.5,2.8-3.5,2.8l-4.2,7.2l-4.2-7.2
	c0,0-1.2-2.8-3.5-2.8c-2.3,0-3.8,2.2-3.8,4c0,1.8,0,3.3,0,3.3v14.2h4.8V29.6c0,0,3.4,5.9,4.3,7.3c0.9,1.4,2.4,1.3,2.4,1.3
	s1.5,0.2,2.4-1.3c0.9-1.4,4.3-7.3,4.3-7.3v13.2H121.7z M128.7,42.8V21.3h-5.4v21.5H128.7z M129.8,34.8h7.9v8.1h5.4v-35h-5.4v21.5
	h-7.9V34.8z M144.4,14.7v1.6l2.9,1.7l-2.7,1.9v25.3H96.8V19.9l-2.7-1.9l26.5-15.8l15.5,9.3V9.8l-15.5-9.3l-29,17.3l3.8,2.7v26h50.4
	v-26l3.8-2.7L144.4,14.7z M29.7,40.6c0.4-0.5,0.6-1.2,0.6-1.9c0-1-0.3-1.8-1-2.4c-0.7-0.7-1.6-1-2.7-1h-4.4v11.1h2.2V42h1.6l2.2,4.4
	h2.5l-2.5-4.8C28.9,41.4,29.3,41.1,29.7,40.6z M27.7,39.8c-0.3,0.3-0.7,0.4-1.1,0.4h-2.1v-2.9h2.1c0.5,0,0.9,0.1,1.1,0.4
	c0.3,0.3,0.4,0.6,0.4,1.1C28.1,39.1,28,39.5,27.7,39.8z M49.3,29.9c1.2,0,2.1-0.4,2.9-1.1c0.8-0.7,1.2-1.7,1.2-2.8v-7.3h-2.2v7.2
	c0,0.6-0.2,1.1-0.5,1.5c-0.3,0.4-0.8,0.5-1.4,0.5c-0.6,0-1.1-0.2-1.4-0.5c-0.3-0.4-0.5-0.9-0.5-1.5v-7.2h-2.2V26
	c0,1.2,0.4,2.1,1.2,2.8C47.2,29.5,48.1,29.9,49.3,29.9z M17.4,42.6c0,0.6-0.2,1.1-0.5,1.5c-0.3,0.4-0.8,0.5-1.4,0.5
	c-0.6,0-1.1-0.2-1.4-0.5c-0.3-0.4-0.5-0.9-0.5-1.5v-7.2h-2.2v7.3c0,1.2,0.4,2.1,1.2,2.8c0.8,0.7,1.8,1.1,2.9,1.1
	c1.2,0,2.1-0.4,2.9-1.1c0.8-0.7,1.2-1.7,1.2-2.8v-7.3h-2.2V42.6z M2,46.4h2.2v-4.5h4.4V40H4.2v-2.7h5.2v-1.9H2V46.4z M22.4,27.9
	h-5.2v-2.7h4.4v-1.9h-4.4v-2.6h5.2v-1.9H15v11.1h7.3V27.9z M12.1,29.8V18.7H9.9l-2.9,6l-2.9-6H2v11.1h2.2v-6.5l2.1,4.2h1.5l2.1-4.2
	v6.5H12.1z M27,25.4h1.6l2.2,4.4h2.5L30.7,25c0.6-0.2,1.1-0.5,1.4-1c0.4-0.5,0.6-1.2,0.6-1.9c0-1-0.3-1.8-1-2.4
	c-0.7-0.7-1.6-1-2.7-1h-4.4v11.1H27V25.4z M27,20.6H29c0.5,0,0.9,0.1,1.1,0.4c0.3,0.3,0.4,0.6,0.4,1.1c0,0.4-0.1,0.8-0.4,1.1
	c-0.3,0.3-0.7,0.4-1.1,0.4H27V20.6z M39.1,20.5c1,0,1.6,0.5,1.9,1.6h2.2c-0.2-1.1-0.6-2-1.4-2.6c-0.7-0.6-1.6-0.9-2.7-0.9
	c-1.2,0-2.2,0.4-3,1.2c-0.5,0.5-0.8,1.1-1,1.9C35,22.2,35,23,35,24.2c0,1.2,0,2.1,0.1,2.5c0.1,0.8,0.5,1.4,1,1.9
	c0.8,0.8,1.8,1.2,3,1.2c1.1,0,2-0.3,2.7-0.9c0.8-0.6,1.2-1.5,1.4-2.6H41c-0.3,1.1-0.9,1.6-1.9,1.6c-0.6,0-1-0.2-1.4-0.6
	c-0.3-0.3-0.4-0.8-0.5-1.5c0-0.2,0-0.8,0-1.6c0-1.6,0.1-2.6,0.4-3C37.9,20.8,38.4,20.5,39.1,20.5z M76.8,40.6
	c0.4-0.5,0.6-1.2,0.6-1.9c0-1-0.3-1.8-1-2.4c-0.7-0.7-1.6-1-2.7-1h-4.4v11.1h2.2V42h1.6l2.2,4.4h2.5l-2.5-4.8
	C76,41.4,76.4,41.1,76.8,40.6z M74.8,39.8c-0.3,0.3-0.7,0.4-1.1,0.4h-2.1v-2.9h2.1c0.5,0,0.9,0.1,1.1,0.4c0.3,0.3,0.4,0.6,0.4,1.1
	C75.2,39.1,75.1,39.5,74.8,39.8z M39.2,42.1l-4.4-6.8h-1.9v11.1H35v-6.8l4.4,6.8h1.9V35.3h-2.2V42.1z M85.8,23.3l-1.3-0.2
	c-0.4-0.1-0.8-0.2-1-0.4c-0.2-0.2-0.4-0.5-0.4-0.8c0-0.4,0.1-0.7,0.4-1c0.3-0.3,0.7-0.4,1.3-0.4c1,0,1.8,0.3,2.3,0.8l1.4-1.4
	c-0.9-0.9-2.1-1.3-3.6-1.3c-1.2,0-2.1,0.3-2.8,0.9c-0.7,0.6-1,1.4-1,2.5c0,1.8,1,2.8,3,3.1l1.3,0.2c0.4,0.1,0.8,0.2,1,0.4
	c0.2,0.2,0.3,0.5,0.3,0.9c0,0.9-0.7,1.4-2,1.4c-1.2,0-2.1-0.3-2.7-0.9l-1.4,1.4c1,1,2.3,1.5,4.1,1.5c1.2,0,2.2-0.3,3-0.9
	c0.8-0.6,1.2-1.4,1.2-2.5c0-1-0.3-1.8-0.9-2.4C87.4,23.7,86.7,23.4,85.8,23.3z M80,46.4h7.3v-1.9h-5.2v-2.7h4.4v-1.9h-4.4v-2.6h5.2
	v-1.9H80V46.4z M66.7,29.8h2.2V18.7h-2.2V29.8z M71.8,29.8h7.3v-1.9H74v-2.7h4.4v-1.9H74v-2.6h5.2v-1.9h-7.3V29.8z M44.3,46.4h2.2
	V35.3h-2.2V46.4z M48.6,37.2h2.9v9.2h2.2v-9.2h2.9v-1.9h-8V37.2z M64.5,42.6c0,0.6-0.2,1.1-0.5,1.5c-0.3,0.4-0.8,0.5-1.4,0.5
	c-0.6,0-1.1-0.2-1.4-0.5c-0.3-0.4-0.5-0.9-0.5-1.5v-7.2h-2.2v7.3c0,1.2,0.4,2.1,1.2,2.8c0.8,0.7,1.8,1.1,2.9,1.1s2.1-0.4,2.9-1.1
	s1.2-1.7,1.2-2.8v-7.3h-2.2V42.6z M62.1,29.8h2.5L62.1,25c0.6-0.2,1.1-0.5,1.4-1c0.4-0.5,0.6-1.2,0.6-1.9c0-1-0.3-1.8-1-2.4
	c-0.7-0.7-1.6-1-2.7-1h-4.4v11.1h2.2v-4.4h1.6L62.1,29.8z M58.3,20.6h2.1c0.5,0,0.9,0.1,1.1,0.4c0.3,0.3,0.4,0.6,0.4,1.1
	c0,0.4-0.1,0.8-0.4,1.1c-0.3,0.3-0.7,0.4-1.1,0.4h-2.1V20.6z"/>
</svg>
